<svg xmlns="http://www.w3.org/2000/svg" width="24.997" height="25" viewBox="0 0 24.997 25">
  <path id="bottom-deco-1" d="M57.214,119.3a10.668,10.668,0,0,1-6.522,6.522l-1.889.54c-2.782.808-2.782,2.124,0,2.927l1.889.54a10.668,10.668,0,0,1,6.522,6.522l.54,1.883c.8,2.788,2.119,2.788,2.921,0l.546-1.883a10.655,10.655,0,0,1,6.522-6.522l1.883-.54c2.782-.8,2.782-2.119,0-2.927l-1.883-.54a10.655,10.655,0,0,1-6.522-6.522l-.546-1.883c-.8-2.788-2.119-2.788-2.921,0Z" transform="translate(-46.716 -115.326)" fill="#fff"/>
</svg>
