<svg xmlns="http://www.w3.org/2000/svg" width="264.44" height="74" viewBox="0 0 264.44 74">
  <g id="top-text-sp" transform="translate(-160 -522)">
    <circle id="楕円形_443" data-name="楕円形 443" cx="1" cy="1" r="1" transform="translate(160 594)" fill="#fff"/>
    <circle id="楕円形_443-2" data-name="楕円形 443" cx="1" cy="1" r="1" transform="translate(166.401 594)" fill="#fff"/>
    <circle id="楕円形_443-3" data-name="楕円形 443" cx="1" cy="1" r="1" transform="translate(172.802 594)" fill="#fff"/>
    <circle id="楕円形_443-4" data-name="楕円形 443" cx="1" cy="1" r="1" transform="translate(179.203 594)" fill="#fff"/>
    <circle id="楕円形_443-5" data-name="楕円形 443" cx="1" cy="1" r="1" transform="translate(185.604 594)" fill="#fff"/>
    <circle id="楕円形_443-6" data-name="楕円形 443" cx="1" cy="1" r="1" transform="translate(192.005 594)" fill="#fff"/>
    <circle id="楕円形_443-7" data-name="楕円形 443" cx="1" cy="1" r="1" transform="translate(198.406 594)" fill="#fff"/>
    <circle id="楕円形_443-8" data-name="楕円形 443" cx="1" cy="1" r="1" transform="translate(204.807 594)" fill="#fff"/>
    <circle id="楕円形_443-9" data-name="楕円形 443" cx="1" cy="1" r="1" transform="translate(211.208 594)" fill="#fff"/>
    <circle id="楕円形_443-10" data-name="楕円形 443" cx="1" cy="1" r="1" transform="translate(217.609 594)" fill="#fff"/>
    <circle id="楕円形_443-11" data-name="楕円形 443" cx="1" cy="1" r="1" transform="translate(224.01 594)" fill="#fff"/>
    <circle id="楕円形_443-12" data-name="楕円形 443" cx="1" cy="1" r="1" transform="translate(230.411 594)" fill="#fff"/>
    <circle id="楕円形_443-13" data-name="楕円形 443" cx="1" cy="1" r="1" transform="translate(236.812 594)" fill="#fff"/>
    <circle id="楕円形_443-14" data-name="楕円形 443" cx="1" cy="1" r="1" transform="translate(243.213 594)" fill="#fff"/>
    <circle id="楕円形_443-15" data-name="楕円形 443" cx="1" cy="1" r="1" transform="translate(249.614 594)" fill="#fff"/>
    <circle id="楕円形_443-16" data-name="楕円形 443" cx="1" cy="1" r="1" transform="translate(256.014 594)" fill="#fff"/>
    <circle id="楕円形_443-17" data-name="楕円形 443" cx="1" cy="1" r="1" transform="translate(262.415 594)" fill="#fff"/>
    <circle id="楕円形_443-18" data-name="楕円形 443" cx="1" cy="1" r="1" transform="translate(268.816 594)" fill="#fff"/>
    <circle id="楕円形_443-19" data-name="楕円形 443" cx="1" cy="1" r="1" transform="translate(275.217 594)" fill="#fff"/>
    <circle id="楕円形_443-20" data-name="楕円形 443" cx="1" cy="1" r="1" transform="translate(281.618 594)" fill="#fff"/>
    <circle id="楕円形_443-21" data-name="楕円形 443" cx="1" cy="1" r="1" transform="translate(288.019 594)" fill="#fff"/>
    <circle id="楕円形_443-22" data-name="楕円形 443" cx="1" cy="1" r="1" transform="translate(294.42 594)" fill="#fff"/>
    <circle id="楕円形_443-23" data-name="楕円形 443" cx="1" cy="1" r="1" transform="translate(300.821 594)" fill="#fff"/>
    <circle id="楕円形_443-24" data-name="楕円形 443" cx="1" cy="1" r="1" transform="translate(307.222 594)" fill="#fff"/>
    <circle id="楕円形_443-25" data-name="楕円形 443" cx="1" cy="1" r="1" transform="translate(313.623 594)" fill="#fff"/>
    <circle id="楕円形_443-26" data-name="楕円形 443" cx="1" cy="1" r="1" transform="translate(320.024 594)" fill="#fff"/>
    <circle id="楕円形_443-27" data-name="楕円形 443" cx="1" cy="1" r="1" transform="translate(326.425 594)" fill="#fff"/>
    <circle id="楕円形_443-28" data-name="楕円形 443" cx="1" cy="1" r="1" transform="translate(332.826 594)" fill="#fff"/>
    <circle id="楕円形_443-29" data-name="楕円形 443" cx="1" cy="1" r="1" transform="translate(339.227 594)" fill="#fff"/>
    <circle id="楕円形_443-30" data-name="楕円形 443" cx="1" cy="1" r="1" transform="translate(345.628 594)" fill="#fff"/>
    <circle id="楕円形_443-31" data-name="楕円形 443" cx="1" cy="1" r="1" transform="translate(352.029 594)" fill="#fff"/>
    <circle id="楕円形_443-32" data-name="楕円形 443" cx="1" cy="1" r="1" transform="translate(358.43 594)" fill="#fff"/>
    <circle id="楕円形_443-33" data-name="楕円形 443" cx="1" cy="1" r="1" transform="translate(364.831 594)" fill="#fff"/>
    <circle id="楕円形_443-34" data-name="楕円形 443" cx="1" cy="1" r="1" transform="translate(371.232 594)" fill="#fff"/>
    <circle id="楕円形_443-35" data-name="楕円形 443" cx="1" cy="1" r="1" transform="translate(377.633 594)" fill="#fff"/>
    <circle id="楕円形_443-36" data-name="楕円形 443" cx="1" cy="1" r="1" transform="translate(384.034 594)" fill="#fff"/>
    <circle id="楕円形_443-37" data-name="楕円形 443" cx="1" cy="1" r="1" transform="translate(390.435 594)" fill="#fff"/>
    <circle id="楕円形_443-38" data-name="楕円形 443" cx="1" cy="1" r="1" transform="translate(396.836 594)" fill="#fff"/>
    <circle id="楕円形_443-39" data-name="楕円形 443" cx="1" cy="1" r="1" transform="translate(403.237 594)" fill="#fff"/>
    <circle id="楕円形_443-40" data-name="楕円形 443" cx="1" cy="1" r="1" transform="translate(409.638 594)" fill="#fff"/>
    <circle id="楕円形_443-41" data-name="楕円形 443" cx="1" cy="1" r="1" transform="translate(416.039 594)" fill="#fff"/>
    <circle id="楕円形_443-42" data-name="楕円形 443" cx="1" cy="1" r="1" transform="translate(422.44 594)" fill="#fff"/>
    <text id="アットホームな歯医者さん" transform="translate(160 586)" fill="#fff" font-size="20" font-family="rounded-mplus-1c-bold, 'Rounded M\+ \31 c'" font-weight="700" letter-spacing="0.08em"><tspan x="0" y="0">アットホームな</tspan><tspan y="0">歯医者</tspan><tspan y="0">さん</tspan></text>
    <circle id="楕円形_443-43" data-name="楕円形 443" cx="1" cy="1" r="1" transform="translate(160 551)" fill="#fff"/>
    <circle id="楕円形_443-44" data-name="楕円形 443" cx="1" cy="1" r="1" transform="translate(166.401 551)" fill="#fff"/>
    <circle id="楕円形_443-45" data-name="楕円形 443" cx="1" cy="1" r="1" transform="translate(172.802 551)" fill="#fff"/>
    <circle id="楕円形_443-46" data-name="楕円形 443" cx="1" cy="1" r="1" transform="translate(179.203 551)" fill="#fff"/>
    <circle id="楕円形_443-47" data-name="楕円形 443" cx="1" cy="1" r="1" transform="translate(185.604 551)" fill="#fff"/>
    <circle id="楕円形_443-48" data-name="楕円形 443" cx="1" cy="1" r="1" transform="translate(192.005 551)" fill="#fff"/>
    <circle id="楕円形_443-49" data-name="楕円形 443" cx="1" cy="1" r="1" transform="translate(198.406 551)" fill="#fff"/>
    <circle id="楕円形_443-50" data-name="楕円形 443" cx="1" cy="1" r="1" transform="translate(204.807 551)" fill="#fff"/>
    <circle id="楕円形_443-51" data-name="楕円形 443" cx="1" cy="1" r="1" transform="translate(211.208 551)" fill="#fff"/>
    <circle id="楕円形_443-52" data-name="楕円形 443" cx="1" cy="1" r="1" transform="translate(217.609 551)" fill="#fff"/>
    <circle id="楕円形_443-53" data-name="楕円形 443" cx="1" cy="1" r="1" transform="translate(224.01 551)" fill="#fff"/>
    <circle id="楕円形_443-54" data-name="楕円形 443" cx="1" cy="1" r="1" transform="translate(230.411 551)" fill="#fff"/>
    <circle id="楕円形_443-55" data-name="楕円形 443" cx="1" cy="1" r="1" transform="translate(236.812 551)" fill="#fff"/>
    <circle id="楕円形_443-56" data-name="楕円形 443" cx="1" cy="1" r="1" transform="translate(243.213 551)" fill="#fff"/>
    <circle id="楕円形_443-57" data-name="楕円形 443" cx="1" cy="1" r="1" transform="translate(249.614 551)" fill="#fff"/>
    <circle id="楕円形_443-58" data-name="楕円形 443" cx="1" cy="1" r="1" transform="translate(256.014 551)" fill="#fff"/>
    <circle id="楕円形_443-59" data-name="楕円形 443" cx="1" cy="1" r="1" transform="translate(262.415 551)" fill="#fff"/>
    <circle id="楕円形_443-60" data-name="楕円形 443" cx="1" cy="1" r="1" transform="translate(268.816 551)" fill="#fff"/>
    <circle id="楕円形_443-61" data-name="楕円形 443" cx="1" cy="1" r="1" transform="translate(275.217 551)" fill="#fff"/>
    <circle id="楕円形_443-62" data-name="楕円形 443" cx="1" cy="1" r="1" transform="translate(281.618 551)" fill="#fff"/>
    <circle id="楕円形_443-63" data-name="楕円形 443" cx="1" cy="1" r="1" transform="translate(288.019 551)" fill="#fff"/>
    <circle id="楕円形_443-64" data-name="楕円形 443" cx="1" cy="1" r="1" transform="translate(294.42 551)" fill="#fff"/>
    <circle id="楕円形_443-65" data-name="楕円形 443" cx="1" cy="1" r="1" transform="translate(300.821 551)" fill="#fff"/>
    <circle id="楕円形_443-66" data-name="楕円形 443" cx="1" cy="1" r="1" transform="translate(307.222 551)" fill="#fff"/>
    <circle id="楕円形_443-67" data-name="楕円形 443" cx="1" cy="1" r="1" transform="translate(313.623 551)" fill="#fff"/>
    <circle id="楕円形_443-68" data-name="楕円形 443" cx="1" cy="1" r="1" transform="translate(320.024 551)" fill="#fff"/>
    <circle id="楕円形_443-69" data-name="楕円形 443" cx="1" cy="1" r="1" transform="translate(326.425 551)" fill="#fff"/>
    <circle id="楕円形_443-70" data-name="楕円形 443" cx="1" cy="1" r="1" transform="translate(332.826 551)" fill="#fff"/>
    <circle id="楕円形_443-71" data-name="楕円形 443" cx="1" cy="1" r="1" transform="translate(339.227 551)" fill="#fff"/>
    <circle id="楕円形_443-72" data-name="楕円形 443" cx="1" cy="1" r="1" transform="translate(345.628 551)" fill="#fff"/>
    <circle id="楕円形_443-73" data-name="楕円形 443" cx="1" cy="1" r="1" transform="translate(352.029 551)" fill="#fff"/>
    <circle id="楕円形_443-74" data-name="楕円形 443" cx="1" cy="1" r="1" transform="translate(358.43 551)" fill="#fff"/>
    <circle id="楕円形_443-75" data-name="楕円形 443" cx="1" cy="1" r="1" transform="translate(364.831 551)" fill="#fff"/>
    <circle id="楕円形_443-76" data-name="楕円形 443" cx="1" cy="1" r="1" transform="translate(371.232 551)" fill="#fff"/>
    <circle id="楕円形_443-77" data-name="楕円形 443" cx="1" cy="1" r="1" transform="translate(377.633 551)" fill="#fff"/>
    <circle id="楕円形_443-78" data-name="楕円形 443" cx="1" cy="1" r="1" transform="translate(384.034 551)" fill="#fff"/>
    <circle id="楕円形_443-79" data-name="楕円形 443" cx="1" cy="1" r="1" transform="translate(390.435 551)" fill="#fff"/>
    <circle id="楕円形_443-80" data-name="楕円形 443" cx="1" cy="1" r="1" transform="translate(396.836 551)" fill="#fff"/>
    <text id="街の皆さまの笑顔を守る" transform="translate(160 543)" fill="#fff" font-size="20" font-family="rounded-mplus-1c-bold, 'Rounded M\+ \31 c'" font-weight="700" letter-spacing="0.08em"><tspan x="0" y="0">街</tspan><tspan y="0">の</tspan><tspan y="0">皆</tspan><tspan y="0">さまの</tspan><tspan y="0">笑顔</tspan><tspan y="0">を</tspan><tspan y="0">守</tspan><tspan y="0">る</tspan></text>
  </g>
</svg>
