<svg xmlns="http://www.w3.org/2000/svg" xmlns:xlink="http://www.w3.org/1999/xlink" width="375" height="32" viewBox="0 0 375 32">
  <defs>
    <clipPath id="clip-path">
      <rect id="長方形_23380" data-name="長方形 23380" width="375" height="32" fill="#fff" stroke="#707070" stroke-width="1"/>
    </clipPath>
  </defs>
  <g id="マスクグループ_3" data-name="マスクグループ 3" clip-path="url(#clip-path)">
    <path id="パス_43736" data-name="パス 43736" d="M1233.867,961.814H-45.9V936.53c5.224,3.7,10.626,7.529,20.97,7.529,10.562,0,15.911-3.693,21.085-7.265,5.2-3.59,10.11-6.98,20.18-6.98s14.983,3.39,20.183,6.98c5.174,3.572,10.525,7.265,21.089,7.265s15.914-3.693,21.088-7.265c5.2-3.59,10.111-6.98,20.183-6.98s14.982,3.39,20.181,6.98c5.174,3.572,10.524,7.265,21.086,7.265s15.912-3.693,21.085-7.265c5.2-3.59,10.11-6.98,20.18-6.98s14.984,3.39,20.183,6.98c5.174,3.572,10.524,7.265,21.088,7.265s15.914-3.693,21.088-7.265c5.2-3.59,10.111-6.98,20.183-6.98s14.981,3.39,20.181,6.98c5.173,3.572,10.523,7.265,21.085,7.265s15.912-3.693,21.085-7.265c5.2-3.59,10.11-6.98,20.18-6.98s14.984,3.39,20.183,6.98c5.174,3.572,10.524,7.265,21.088,7.265s15.914-3.693,21.088-7.265c5.2-3.59,10.111-6.98,20.183-6.98s14.981,3.39,20.181,6.98c5.173,3.572,10.523,7.265,21.086,7.265s15.911-3.693,21.085-7.265c5.2-3.59,10.11-6.98,20.18-6.98s14.984,3.39,20.183,6.98c5.174,3.572,10.524,7.265,21.088,7.265s15.914-3.693,21.088-7.265c5.2-3.59,10.112-6.98,20.183-6.98s14.982,3.39,20.181,6.98c5.173,3.572,10.523,7.265,21.086,7.265s15.911-3.693,21.084-7.265c5.2-3.59,10.11-6.98,20.181-6.98s14.983,3.39,20.183,6.98c5.174,3.572,10.525,7.265,21.088,7.265s15.915-3.693,21.089-7.265c5.2-3.59,10.111-6.98,20.183-6.98s14.982,3.39,20.181,6.98c5.174,3.572,10.524,7.265,21.086,7.265s15.911-3.693,21.085-7.265c5.2-3.59,10.11-6.98,20.18-6.98s14.983,3.39,20.183,6.98c5.174,3.572,10.525,7.265,21.089,7.265s15.914-3.693,21.088-7.265c5.2-3.59,10.111-6.98,20.184-6.98s14.981,3.39,20.18,6.98c5.174,3.572,10.524,7.265,21.086,7.265s15.912-3.693,21.085-7.265c5.2-3.59,10.11-6.98,20.18-6.98s14.984,3.39,20.183,6.98c5.174,3.572,10.524,7.265,21.088,7.265s15.914-3.693,21.088-7.265c5.2-3.59,10.111-6.98,20.183-6.98s14.981,3.39,20.18,6.98c5.174,3.572,10.524,7.265,21.086,7.265s15.912-3.693,21.085-7.265c5.2-3.59,10.11-6.98,20.18-6.98s14.984,3.39,20.183,6.98c5.174,3.572,10.524,7.265,21.088,7.265,10.345,0,15.748-3.827,20.973-7.529Z" transform="translate(45.402 -929.814)" fill="#dff1fd"/>
  </g>
</svg>
