<svg xmlns="http://www.w3.org/2000/svg" width="54.157" height="59" viewBox="0 0 54.157 59">
  <g id="bottom-deco-2" transform="translate(0 -0.392)">
    <path id="パス_43725" data-name="パス 43725" d="M61.847,123.446a8.542,8.542,0,0,0,5.224,5.215l1.5.437c2.228.638,2.228,1.695,0,2.332l-1.5.437a8.541,8.541,0,0,0-5.224,5.215l-.437,1.511c-.638,2.228-1.695,2.228-2.332,0l-.437-1.511a8.507,8.507,0,0,0-5.215-5.215l-1.511-.437c-2.228-.638-2.228-1.695,0-2.332l1.511-.437a8.507,8.507,0,0,0,5.215-5.215l.437-1.511c.638-2.228,1.695-2.228,2.332,0Z" transform="translate(-50.244 -80.872)" fill="#fff"/>
    <path id="パス_43727" data-name="パス 43727" d="M69.916,121.685A17.068,17.068,0,0,0,80.351,132.12l3.022.865c4.452,1.293,4.452,3.4,0,4.683l-3.022.865a17.068,17.068,0,0,0-10.436,10.435l-.865,3.013c-1.284,4.46-3.39,4.46-4.674,0l-.873-3.013a17.047,17.047,0,0,0-10.436-10.435l-3.013-.865c-4.452-1.284-4.452-3.39,0-4.683l3.013-.865A17.047,17.047,0,0,0,63.5,121.685l.873-3.013c1.284-4.46,3.39-4.46,4.674,0Z" transform="translate(-32.555 -114.934)" fill="#fff"/>
  </g>
</svg>
